<?xml version="1.0" encoding="UTF-8"?>
<svg width="677px" height="136px" viewBox="0 0 677 136" version="1.1" xmlns="http://www.w3.org/2000/svg" xmlns:xlink="http://www.w3.org/1999/xlink">
    <title>logo-light</title>
    <g id="Page-2" stroke="none" stroke-width="1" fill="none" fill-rule="evenodd">
        <g id="Artboard" transform="translate(-121, -60)">
            <g id="logo-light" transform="translate(121, 60)">
                <path d="M40,24 L40,40 C26.745166,40 16,50.745166 16,64 L16,104 L0,104 L0,27 L16,27 L16,31.997 L16.3765195,31.7176797 C22.8306425,26.9866852 30.7560458,24.1445107 39.3385269,24.0053589 L40,24 Z M80,24 C102.09139,24 120,41.90861 120,64 L120,76 L59.211,76 C63.3031628,83.0694789 70.8885968,87.855492 79.6031161,87.9967847 L80,88 L104,88 L104,104 L80,104 C57.90861,104 40,86.09139 40,64 C40,41.90861 57.90861,24 80,24 Z M80,40 C68.2031977,40 58.3943035,48.511246 56.3790881,59.7279672 L56.332,60 L103.667,60 L103.620912,59.7279672 C101.628339,48.6372766 92.0162429,40.1916055 80.3968839,40.0032153 L80,40 Z M444,24 C466.09139,24 484,41.90861 484,64 L484,76 L423.211,76 C427.303163,83.0694789 434.888597,87.855492 443.603116,87.9967847 L444,88 L468,88 L468,104 L444,104 C421.90861,104 404,86.09139 404,64 C404,41.90861 421.90861,24 444,24 Z M444,40 C432.203198,40 422.394304,48.511246 420.379088,59.7279672 L420.332,60 L467.667,60 L467.620912,59.7279672 C465.628339,48.6372766 456.016243,40.1916055 444.396884,40.0032153 L444,40 Z M164,24 C186.09139,24 204,41.90861 204,64 C204,86.09139 186.09139,104 164,104 C155.163444,104 146.996133,101.134622 140.37652,96.2823203 L140,96.002 L140,136 L124,136 L124,27 L140,27 L140,31.997 L140.37652,31.7176797 C146.830642,26.9866852 154.756046,24.1445107 163.338527,24.0053589 L164,24 Z M164,40 C150.745166,40 140,50.745166 140,64 L140.003215,64.3968839 C140.213013,77.3366246 150.663375,87.7869865 163.603116,87.9967847 L164,88 C177.254834,88 188,77.254834 188,64 C188,50.745166 177.254834,40 164,40 Z M336.5,26 L336.5,64 C336.5,77.254834 347.245166,88 360.5,88 C373.754834,88 384.5,77.254834 384.5,64 L384.5,26 L400.5,26 L400.5,96 C400.5,118.09139 382.59139,136 360.5,136 L344.5,136 L344.5,120 L360.5,120 C373.754834,120 384.5,109.254834 384.5,96 L384.12348,96.2823203 C377.669358,101.013315 369.743954,103.855489 361.161473,103.994641 L360.5,104 C338.40861,104 320.5,86.09139 320.5,64 L320.5,26 L336.5,26 Z M224,0 L224,80 C224,84.418278 227.581722,88 232,88 L232.5,88 L232.5,104 L232,104 C218.745166,104 208,93.254834 208,80 L208,0 L224,0 Z M272.5,24 C281.336556,24 289.503867,26.8653776 296.12348,31.7176797 L296.5,31.998 L296.5,26 L312.5,26 L312.5,80 C312.5,84.418278 316.081722,88 320.5,88 L320.5,104 C312.016906,104 304.561772,99.59878 300.293485,92.9552264 L300.218,92.837 L299.902497,93.1395358 C292.893157,99.7335579 283.504463,103.826945 273.161473,103.994641 L272.5,104 C250.40861,104 232.5,86.09139 232.5,64 C232.5,41.90861 250.40861,24 272.5,24 Z M272.5,40 C259.245166,40 248.5,50.745166 248.5,64 C248.5,77.254834 259.245166,88 272.5,88 C285.754834,88 296.5,77.254834 296.5,64 L296.496785,63.6031161 C296.286987,50.6633754 285.836625,40.2130135 272.896884,40.0032153 L272.5,40 Z M568,0 L568,80 C568,84.418278 571.581722,88 576,88 L576,104 C567.516906,104 560.061772,99.59878 555.793485,92.9552264 L555.718,92.837 L555.402497,93.1395358 C548.393157,99.7335579 539.004463,103.826945 528.661473,103.994641 L528,104 C505.90861,104 488,86.09139 488,64 C488,41.90861 505.90861,24 528,24 C536.836556,24 545.003867,26.8653776 551.62348,31.7176797 L552,31.998 L552,0 L568,0 Z M528,40 C514.745166,40 504,50.745166 504,64 C504,77.254834 514.745166,88 528,88 C541.254834,88 552,77.254834 552,64 L551.996785,63.6031161 C551.786987,50.6633754 541.336625,40.2130135 528.396884,40.0032153 L528,40 Z" id="Combined-Shape" fill="#000000" fill-rule="nonzero"></path>
                <path d="M588,25 L604,25 L604,104 L588,104 Z M616,104 L616,25 L676.5,64.5 L616,104 Z" id="Combined-Shape" fill="#9F8383"></path>
            </g>
        </g>
    </g>
</svg>