<?xml version="1.0" encoding="UTF-8"?>
<svg width="838px" height="71px" viewBox="0 0 838 71" version="1.1" xmlns="http://www.w3.org/2000/svg" xmlns:xlink="http://www.w3.org/1999/xlink">
    <title>logo-dark</title>
    <g id="Page-1" stroke="none" stroke-width="1" fill="none" fill-rule="evenodd">
        <g id="Artboard" transform="translate(-52, -115)" fill="#FFFFFF">
            <path d="M84,116.657446 L84,128.657446 C72.954305,128.657446 64,135.82089 64,144.657446 L64,183.657446 L52,183.657446 L52,119.657446 L64,119.657446 L64.0004022,122.798365 C69.4787322,118.955847 76.4326115,116.657446 84,116.657446 Z M118,116.657446 C135.673112,116.657446 150,129.193473 150,144.657446 L150,156.657446 L98.038506,156.658464 C98.6843778,165.028713 107.374549,171.657446 118,171.657446 L142,171.657446 L142,183.657446 L118,183.657446 L117.470821,183.653694 C100.041783,183.406432 86,170.966779 86,155.657446 L86,144.657446 C86,129.193473 100.326888,116.657446 118,116.657446 Z M118,128.657446 C106.954305,128.657446 98,135.82089 98,144.657446 L138,144.657446 C138,135.82089 129.045695,128.657446 118,128.657446 Z M550,116.657446 C567.673112,116.657446 582,129.193473 582,144.657446 L582,156.657446 L530.038506,156.658464 C530.684378,165.028713 539.374549,171.657446 550,171.657446 L574,171.657446 L574,183.657446 L550,183.657446 L549.470821,183.653694 C532.041783,183.406432 518,170.966779 518,155.657446 L518,144.657446 C518,129.193473 532.326888,116.657446 550,116.657446 Z M550,128.657446 C538.954305,128.657446 530,135.82089 530,144.657446 L570,144.657446 C570,135.82089 561.045695,128.657446 550,128.657446 Z M766,116.657446 C783.673112,116.657446 798,129.193473 798,144.657446 L798,156.657446 L746.038506,156.658464 C746.684378,165.028713 755.374549,171.657446 766,171.657446 L790,171.657446 L790,183.657446 L766,183.657446 L765.470821,183.653694 C748.041783,183.406432 734,170.966779 734,155.657446 L734,144.657446 C734,129.193473 748.326888,116.657446 766,116.657446 Z M766,128.657446 C754.954305,128.657446 746,135.82089 746,144.657446 L786,144.657446 C786,135.82089 777.045695,128.657446 766,128.657446 Z M170,144.657446 C170,135.82089 178.954305,128.657446 190,128.657446 C196.869006,128.657446 202.929221,131.427725 206.53016,135.647898 C207.386524,136.651525 208.333145,138.321491 209.370025,140.657794 L221.676046,140.658112 C219.458181,127.08861 206.121278,116.657446 190,116.657446 C172.326888,116.657446 158,129.193473 158,144.657446 L158,156.657446 L158.004287,157.120477 C158.286872,172.370885 172.503619,184.657446 190,184.657446 C206.121278,184.657446 219.458181,174.226281 221.676046,160.656779 L209.370025,160.657097 C207.149962,167.558183 199.319354,172.657446 190,172.657446 C178.954305,172.657446 170,165.494002 170,156.657446 L170,144.657446 Z M674,144.657446 C674,135.82089 682.954305,128.657446 694,128.657446 C700.869006,128.657446 706.929221,131.427725 710.53016,135.647898 C711.386524,136.651525 712.333145,138.321491 713.370025,140.657794 L725.676046,140.658112 C723.458181,127.08861 710.121278,116.657446 694,116.657446 C676.326888,116.657446 662,129.193473 662,144.657446 L662,156.657446 L662.004287,157.120477 C662.286872,172.370885 676.503619,184.657446 694,184.657446 C710.121278,184.657446 723.458181,174.226281 725.676046,160.656779 L713.370025,160.657097 C711.149962,167.558183 703.319354,172.657446 694,172.657446 C682.954305,172.657446 674,165.494002 674,156.657446 L674,144.657446 Z M282,144.657446 C282,135.82089 273.045695,128.657446 262,128.657446 C250.954305,128.657446 242,135.82089 242,144.657446 L242,156.657446 L242.003307,156.95137 C242.199243,165.652305 251.077035,172.657446 262,172.657446 C273.045695,172.657446 282,165.494002 282,156.657446 L282,144.657446 Z M293.995713,157.120477 C293.713128,172.370885 279.496381,184.657446 262,184.657446 C244.326888,184.657446 230,172.121419 230,156.657446 L230,144.657446 C230,129.193473 244.326888,116.657446 262,116.657446 C279.673112,116.657446 294,129.193473 294,144.657446 L294,156.657446 L293.995713,157.120477 Z M374,128.657446 C365.163444,128.657446 358,135.82089 358,144.657446 L358,183.657446 L346,183.657446 L346,144.657446 C346,135.82089 338.836556,128.657446 330,128.657446 C321.163444,128.657446 314,135.82089 314,144.657446 L314,183.657446 L302,183.657446 L302,119.657446 L314,119.657446 L313.999915,121.676262 C318.535265,118.512728 324.05097,116.657446 330,116.657446 C338.924135,116.657446 346.873161,120.832383 352.000482,127.335663 C357.126839,120.832383 365.075865,116.657446 374,116.657446 C389.463973,116.657446 402,129.193473 402,144.657446 L402,183.657446 L390,183.657446 L390,144.657446 C390,135.82089 382.836556,128.657446 374,128.657446 Z M482,128.657446 C473.163444,128.657446 466,135.82089 466,144.657446 L466,183.657446 L454,183.657446 L454,144.657446 C454,135.82089 446.836556,128.657446 438,128.657446 C429.163444,128.657446 422,135.82089 422,144.657446 L422,183.657446 L410,183.657446 L410,119.657446 L422,119.657446 L421.999915,121.676262 C426.535265,118.512728 432.05097,116.657446 438,116.657446 C446.924135,116.657446 454.873161,120.832383 460.000482,127.335663 C465.126839,120.832383 473.075865,116.657446 482,116.657446 C497.463973,116.657446 510,129.193473 510,144.657446 L510,183.657446 L498,183.657446 L498,144.657446 C498,135.82089 490.836556,128.657446 482,128.657446 Z M622,128.657446 C610.954305,128.657446 602,135.82089 602,144.657446 L602,183.657446 L590,183.657446 L590,119.657446 L602,119.657446 L602.000402,122.798365 C607.478732,118.955847 614.432612,116.657446 622,116.657446 C639.673112,116.657446 654,129.193473 654,144.657446 L654,183.657446 L642,183.657446 L642,144.657446 C642,135.82089 633.045695,128.657446 622,128.657446 Z M830.5,118.000433 L830.5,182.314458 C830.5,183.971312 831.843146,185.314458 833.5,185.314458 C834.051008,185.314458 834.591373,185.162706 835.061822,184.875847 L887.799323,152.718834 C889.213939,151.856263 889.66146,150.010239 888.798889,148.595623 C888.550077,148.187571 888.207375,147.844869 887.799323,147.596057 L835.061822,115.439045 C833.647206,114.576474 831.801182,115.023995 830.938611,116.438611 C830.651752,116.90906 830.5,117.449425 830.5,118.000433 Z" id="logo-dark"></path>
        </g>
    </g>
</svg>